HIERARCHY
ROOT Hips
{
 OFFSET 0.000000 0.000000 0.000000
 CHANNELS 6 Xposition Yposition Zposition Yrotation Xrotation Zrotation
 JOINT Chest
 {
  OFFSET 0.000000 9.968492 -0.001267
  CHANNELS 3 Yrotation Xrotation Zrotation
  JOINT Chest2
  {
   OFFSET 0.000000 10.967159 0.002301
   CHANNELS 3 Yrotation Xrotation Zrotation
   JOINT Chest3
   {
    OFFSET 0.000000 9.909283 0.000000
    CHANNELS 3 Yrotation Xrotation Zrotation
    JOINT Chest4
    {
     OFFSET 0.000000 9.909283 0.000000
     CHANNELS 3 Yrotation Xrotation Zrotation
     JOINT Neck
     {
      OFFSET 0.000000 13.946294 0.000000
      CHANNELS 3 Yrotation Xrotation Zrotation
      JOINT Head
      {
       OFFSET 0.000000 9.224544 0.005472
       CHANNELS 3 Yrotation Xrotation Zrotation
       End Site
       {
        OFFSET 0.000000 17.643221 0.002858
       }
      }
     }
     JOINT RightCollar
     {
      OFFSET -3.037229 7.783075 0.000000
      CHANNELS 3 Yrotation Xrotation Zrotation
      JOINT RightShoulder
      {
       OFFSET -14.223264 0.000000 0.000000
       CHANNELS 3 Yrotation Xrotation Zrotation
       JOINT RightElbow
       {
        OFFSET 0.000000 -30.459151 0.000000
        CHANNELS 3 Yrotation Xrotation Zrotation
        JOINT RightWrist
        {
         OFFSET 0.000000 -24.900006 -0.000000
         CHANNELS 3 Yrotation Xrotation Zrotation
         End Site
         {
          OFFSET 0.000000 -18.592915 0.000000
         }
        }
       }
      }
     }
     JOINT LeftCollar
     {
      OFFSET 3.037229 7.783075 0.000000
      CHANNELS 3 Yrotation Xrotation Zrotation
      JOINT LeftShoulder
      {
       OFFSET 14.223264 0.000000 0.000000
       CHANNELS 3 Yrotation Xrotation Zrotation
       JOINT LeftElbow
       {
        OFFSET 0.000000 -30.459151 0.000000
        CHANNELS 3 Yrotation Xrotation Zrotation
        JOINT LeftWrist
        {
         OFFSET 0.000000 -24.900006 -0.000000
         CHANNELS 3 Yrotation Xrotation Zrotation
         End Site
         {
          OFFSET 0.000000 -18.592915 0.000000
         }
        }
       }
      }
     }
    }
   }
  }
 }
 JOINT RightHip
 {
  OFFSET -8.105589 0.006207 0.000633
  CHANNELS 3 Yrotation Xrotation Zrotation
  JOINT RightKnee
  {
   OFFSET 0.000000 -42.037588 -0.000599
   CHANNELS 3 Yrotation Xrotation Zrotation
   JOINT RightAnkle
   {
    OFFSET 0.000000 -41.031088 -0.001013
    CHANNELS 3 Yrotation Xrotation Zrotation
    JOINT RightToe
    {
     OFFSET 0.000000 -7.217244 16.396997
     CHANNELS 3 Yrotation Xrotation Zrotation
     End Site
     {
      OFFSET 0.000000 -1.535852 6.674588
     }
    }
   }
  }
 }
 JOINT LeftHip
 {
  OFFSET 8.105589 0.006207 0.000633
  CHANNELS 3 Yrotation Xrotation Zrotation
  JOINT LeftKnee
  {
   OFFSET 0.000000 -42.037588 -0.000599
   CHANNELS 3 Yrotation Xrotation Zrotation
   JOINT LeftAnkle
   {
    OFFSET 0.000000 -41.031088 -0.001013
    CHANNELS 3 Yrotation Xrotation Zrotation
    JOINT LeftToe
    {
     OFFSET 0.000000 -7.217244 16.396997
     CHANNELS 3 Yrotation Xrotation Zrotation
     End Site
     {
      OFFSET 0.000000 -1.535852 6.674588
     }
    }
   }
  }
 }
}
MOTION
Frames: 15
Frame Time: 0.008333
12.968138 58.008842 130.562556 16.249527 -16.327288 0.216763 -4.213649 13.997197 -2.567652 -1.453155 6.145851 -0.057070 -1.453155 6.145851 -0.057070 -1.088243 4.609554 -0.028099 -9.428301 19.577938 6.059307 -12.061598 -4.407414 9.066513 -4.290955 6.080539 5.148217 -20.482028 -31.889002 -25.303874 67.362773 -74.144357 -38.940785 5.713285 5.397784 -9.248854 -3.458509 2.374287 -8.794775 -2.543347 -18.263871 10.605442 -37.728272 -40.694645 13.747031 -14.646309 5.482502 8.822859 0.863549 -52.653741 -30.686689 137.934170 61.951774 130.537623 24.355155 -24.059143 -5.469879 0.882059 -7.609799 -4.380453 23.837894 -50.362381 11.055904 166.725323 66.907977 171.330797 -33.031128 -18.409752 5.176124 -2.918837 -24.967550 16.274660
12.967714 58.008083 130.576225 16.185206 -16.319815 0.225227 -4.264569 13.977087 -2.622828 -1.463041 6.141079 -0.075398 -1.463041 6.141079 -0.075398 -1.095467 4.606021 -0.041743 -9.359736 19.593092 6.046788 -11.975731 -4.399047 9.032121 -4.274518 6.182696 5.052614 -17.135042 -30.123436 -27.937436 70.698145 -75.579203 -41.592249 5.516603 4.971211 -8.127722 -3.477121 2.388567 -8.741230 -2.256451 -18.207327 10.482526 -38.134094 -40.549705 14.036511 -14.582275 5.487835 8.804109 0.868919 -52.670384 -30.687160 137.897169 61.940934 130.507811 24.394261 -24.071495 -5.479444 0.882817 -7.543506 -4.413118 23.799561 -50.349426 11.127382 166.806865 66.906246 171.372640 -33.026371 -18.406506 5.177854 -2.922643 -24.989462 16.272718
12.972319 58.005465 130.586850 16.126312 -16.320752 0.231626 -4.315108 13.959360 -2.682885 -1.472849 6.136453 -0.093606 -1.472849 6.136453 -0.093606 -1.102635 4.602597 -0.055298 -9.286829 19.628991 6.033704 -11.884536 -4.366947 8.995707 -4.249710 6.280146 4.994535 -13.685354 -28.126868 -30.459936 75.448980 -76.803350 -45.893774 5.284571 4.442401 -6.980078 -3.499471 2.415216 -8.682230 -1.988876 -18.153874 10.382907 -38.483983 -40.385432 14.282733 -14.544053 5.490311 8.775172 0.882193 -52.686068 -30.693819 137.872589 61.925848 130.487298 24.412973 -24.068660 -5.468416 0.879005 -7.497082 -4.445868 23.780241 -50.335003 11.189919 166.857439 66.898326 171.394403 -33.034460 -18.404406 5.184939 -2.923261 -25.009265 16.273530
12.978597 58.000916 130.593333 16.078039 -16.322940 0.234244 -4.359839 13.937695 -2.736097 -1.481376 6.132159 -0.109886 -1.481376 6.132159 -0.109886 -1.108863 4.599418 -0.067422 -9.226432 19.679500 6.022557 -11.808932 -4.316061 8.965079 -4.208682 6.382424 4.958395 -10.266975 -25.947780 -32.783205 81.571718 -77.750395 -51.853287 4.999057 3.971060 -5.803894 -3.532831 2.446243 -8.623779 -1.771520 -18.098441 10.315461 -38.762886 -40.214405 14.482805 -14.506437 5.514505 8.740607 0.891083 -52.703397 -30.690760 137.868243 61.916017 130.476977 24.455812 -24.056100 -5.471653 0.880179 -7.463327 -4.469771 23.760844 -50.325898 11.246754 166.891028 66.887429 171.401432 -33.049000 -18.401770 5.192192 -2.918103 -25.025919 16.276055
12.984893 57.994514 130.596684 16.034124 -16.328271 0.224563 -4.388578 13.916404 -2.764346 -1.487659 6.127472 -0.121784 -1.487659 6.127472 -0.121784 -1.113453 4.595932 -0.076285 -9.177786 19.738077 6.013222 -11.747962 -4.254144 8.939913 -4.119800 6.466626 4.933542 -7.040949 -23.616925 -34.848900 89.113227 -78.312141 -59.451289 4.685005 3.476517 -4.542974 -3.578504 2.477147 -8.576148 -1.632233 -18.046202 10.278774 -38.950739 -40.018087 14.638932 -14.475075 5.543289 8.686548 0.882792 -52.717999 -30.660082 137.877413 61.910516 130.477591 24.465735 -24.048545 -5.461355 0.883351 -7.434092 -4.485380 23.750818 -50.323166 11.299769 166.897429 66.872109 171.395358 -33.061592 -18.410581 5.201709 -2.913730 -25.033331 16.275768
12.990001 57.987712 130.597930 15.995758 -16.335212 0.209243 -4.402286 13.894203 -2.773415 -1.494904 6.123523 -0.129445 -1.494904 6.123523 -0.129445 -1.118806 4.592991 -0.081962 -9.143374 19.799570 6.003559 -11.703948 -4.187138 8.918456 -3.987292 6.557623 4.946656 -4.018166 -21.306349 -36.706542 97.614173 -78.418242 -68.120329 4.305940 3.018604 -3.199031 -3.613620 2.506596 -8.557027 -1.572956 -18.007332 10.288662 -39.048023 -39.804879 14.740041 -14.459403 5.574536 8.619018 0.875030 -52.728898 -30.609720 137.906702 61.912615 130.490084 24.472989 -24.037714 -5.440039 0.880413 -7.420374 -4.498794 23.760487 -50.324680 11.347936 166.874783 66.858567 171.375793 -33.088241 -18.429689 5.208787 -2.904570 -25.027205 16.279432
12.995574 57.981071 130.595989 15.972978 -16.338580 0.197452 -4.404166 13.873153 -2.758457 -1.500493 6.121356 -0.129771 -1.500493 6.121356 -0.129771 -1.122992 4.591368 -0.082156 -9.133197 19.853297 5.992274 -11.688422 -4.126501 8.902103 -3.911807 6.638149 4.949920 -1.163997 -18.913491 -38.289258 106.566435 -77.899563 -77.481415 3.873848 2.556737 -1.693050 -3.642143 2.513643 -8.571464 -1.615490 -17.976543 10.331397 -39.065950 -39.560943 14.796820 -14.441077 5.598275 8.547193 0.873173 -52.737847 -30.568784 137.932598 61.913908 130.499696 24.460198 -24.032376 -5.414810 0.874692 -7.412939 -4.502870 23.793885 -50.332596 11.365583 166.843256 66.846009 171.354849 -33.109461 -18.447306 5.217442 -2.897549 -25.016595 16.284559
12.999742 57.973287 130.591154 15.962615 -16.333366 0.186803 -4.397788 13.855979 -2.720942 -1.506330 6.120441 -0.123332 -1.506330 6.120441 -0.123332 -1.127431 4.590668 -0.077275 -9.141958 19.889263 5.977430 -11.694487 -4.084765 8.887132 -3.800606 6.679833 4.905147 1.320645 -16.528570 -39.573617 114.527937 -76.781968 -86.137073 3.423955 2.013970 0.090914 -3.648144 2.492280 -8.618861 -1.754899 -17.958199 10.402627 -39.005295 -39.296367 14.796500 -14.435280 5.615953 8.476184 0.880204 -52.750883 -30.535197 137.953234 61.915588 130.503196 24.470409 -24.026706 -5.409728 0.865813 -7.409941 -4.495568 23.840773 -50.350856 11.365058 166.790678 66.834477 171.316546 -33.133623 -18.470618 5.227039 -2.889897 -24.995619 16.287930
12.985856 57.965009 130.583759 15.899812 -16.285935 0.102115 -4.281792 13.816680 -2.554881 -1.508324 6.122115 -0.109431 -1.508324 6.122115 -0.109431 -1.129064 4.591889 -0.066834 -9.178295 19.898244 5.962897 -11.733577 -4.071359 8.880538 -3.662982 6.751376 4.872874 3.429001 -14.268766 -40.666389 120.660298 -75.210341 -93.254072 2.985109 1.317779 2.044672 -3.654655 2.452055 -8.691011 -1.954845 -17.969705 10.492263 -38.905948 -39.019191 14.749317 -14.428605 5.628197 8.406168 0.839759 -52.798578 -30.363572 137.957668 61.916860 130.499008 24.539260 -24.062051 -5.395783 0.790623 -7.370194 -4.515950 23.877126 -50.447588 11.459530 166.718002 66.822027 171.263774 -33.096281 -18.525009 5.240883 -2.932696 -24.948935 16.261887
12.989362 57.959478 130.578293 15.920727 -16.277783 0.101522 -4.238486 13.818071 -2.471372 -1.506673 6.125384 -0.087315 -1.506673 6.125384 -0.087315 -1.128048 4.594286 -0.050272 -9.238916 19.879929 5.944070 -11.800460 -4.087479 8.876035 -3.532082 6.851851 4.804217 5.118784 -12.238386 -41.542604 125.065839 -73.399399 -98.797018 2.578223 0.482295 4.069086 -3.660843 2.404753 -8.789222 -2.198174 -18.010246 10.580303 -38.796558 -38.741056 14.681333 -14.432193 5.633478 8.340204 0.870236 -52.798194 -30.371352 137.952474 61.914170 130.489010 24.524000 -24.058685 -5.378918 0.770878 -7.389659 -4.505223 23.958289 -50.466441 11.405291 166.636986 66.812110 171.215400 -33.115142 -18.555932 5.246854 -2.926823 -24.918828 16.266254
12.990994 57.953073 130.572926 15.957116 -16.262386 0.101143 -4.180334 13.826096 -2.363302 -1.502667 6.130243 -0.058906 -1.502667 6.130243 -0.058906 -1.125330 4.597860 -0.029014 -9.315718 19.827891 5.921549 -11.885725 -4.141533 8.872082 -3.436029 6.935407 4.723118 6.412632 -10.473873 -42.194140 128.103456 -71.591264 -103.042121 2.123519 -0.278110 5.965375 -3.655199 2.340245 -8.899217 -2.463887 -18.079415 10.644628 -38.704698 -38.463546 14.599888 -14.426425 5.644516 8.287093 0.904171 -52.796314 -30.395230 137.935034 61.911196 130.477090 24.497690 -24.062898 -5.357912 0.746048 -7.413044 -4.493327 24.032382 -50.496424 11.346909 166.575082 66.797185 171.179306 -33.124534 -18.583215 5.256959 -2.927691 -24.889902 16.269225
12.991412 57.948126 130.566077 16.005582 -16.232406 0.103534 -4.105143 13.833318 -2.244098 -1.493838 6.138162 -0.025855 -1.493838 6.138162 -0.025855 -1.119043 4.603717 -0.004318 -9.406584 19.751420 5.903323 -11.989249 -4.222064 8.877347 -3.355755 7.003741 4.627913 7.286086 -9.032654 -42.604958 130.141241 -70.035564 -106.309920 1.627574 -0.970350 7.690125 -3.654009 2.267406 -9.014711 -2.736181 -18.178235 10.696337 -38.650468 -38.199291 14.521215 -14.419138 5.647843 8.234954 0.943729 -52.801400 -30.420790 137.924132 61.915451 130.467973 24.459580 -24.074639 -5.320913 0.714059 -7.444827 -4.481847 24.129193 -50.539975 11.256323 166.501230 66.788968 171.142109 -33.134583 -18.608487 5.262575 -2.926852 -24.856356 16.274578
12.993742 57.942229 130.557502 16.076897 -16.191213 0.112571 -4.026515 13.849224 -2.127845 -1.483067 6.148188 0.008643 -1.483067 6.148188 0.008643 -1.111318 4.611152 0.021447 -9.498543 19.655550 5.896653 -12.097717 -4.323974 8.896592 -3.292345 7.047052 4.504442 7.742046 -8.015702 -42.793289 131.616832 -68.915947 -108.926870 1.074117 -1.481417 9.167633 -3.656399 2.173630 -9.122727 -2.979368 -18.290350 10.727595 -38.645822 -37.969173 14.455668 -14.415516 5.644711 8.197290 0.999592 -52.812564 -30.483802 137.899042 61.915940 130.446235 24.444383 -24.084602 -5.284033 0.670641 -7.484813 -4.474293 24.247332 -50.594534 11.124725 166.415575 66.778656 171.100325 -33.143911 -18.629946 5.272715 -2.927296 -24.822445 16.279959
12.997921 57.938435 130.549887 16.161863 -16.152869 0.121008 -3.956576 13.870484 -2.023519 -1.472691 6.158591 0.042238 -1.472691 6.158591 0.042238 -1.103879 4.618874 0.046540 -9.581350 19.559830 5.901705 -12.198876 -4.425574 8.926970 -3.273383 7.057865 4.370924 7.771096 -7.530559 -42.744646 132.834220 -68.360035 -111.037851 0.541079 -1.773001 10.333228 -3.649227 2.078876 -9.224604 -3.193385 -18.394682 10.746479 -38.695471 -37.790859 14.426033 -14.402862 5.636239 8.167368 1.041878 -52.818202 -30.545780 137.884458 61.919528 130.429209 24.440913 -24.092329 -5.261015 0.636923 -7.535969 -4.460467 24.366850 -50.642871 10.976948 166.324454 66.770536 171.059370 -33.145385 -18.655208 5.283637 -2.929862 -24.786638 16.282889
13.003729 57.934885 130.539150 16.251722 -16.108417 0.124053 -3.894347 13.877508 -1.932330 -1.464005 6.165863 0.071177 -1.464005 6.165863 0.071177 -1.097662 4.624259 0.068153 -9.651013 19.487740 5.918755 -12.287878 -4.499881 8.967453 -3.278517 7.047499 4.231300 7.434516 -7.606495 -42.489394 133.977542 -68.419694 -112.798238 0.145208 -1.816639 11.085108 -3.620465 2.006095 -9.306747 -3.382329 -18.490417 10.752516 -38.772479 -37.679467 14.420216 -14.395569 5.620921 8.135802 1.095777 -52.819555 -30.617771 137.860960 61.935770 130.418556 24.420845 -24.104519 -5.219560 0.606653 -7.589347 -4.447893 24.490721 -50.699501 10.818367 166.207424 66.762900 170.997163 -33.148220 -18.680611 5.292060 -2.932884 -24.748732 16.286830
